# xmcd
#
# Track frame offsets:
#	150
#	14302
#	28496
#	42681
#	58749
#	76407
#	89898
#	108501
#	122294
#	135851
#	150889
#	170529
#	186908
#	203216
#	218594
#	231489
#	249050
#	263796
#	280852
#	296431
#
# Disc length: 4133 seconds
#
# Revision: 0
# Processed by: cddbd v1.5.2PL0 Copyright (c) Steve Scherf et al.
# Submitted via: EZCDAudioConverter 3.1.0.1
#
DISCID=1a102314
DTITLE=Nu Country Traxx Volume 218 US
DYEAR=2017
DGENRE=country
TTITLE0=Chris Janson - Fix A Drink
TTITLE1=Josh Turner - All About You
TTITLE2=Brantley Gilbert - The Ones That Like Me
TTITLE3=Kenny Chesney - All The Pretty Girls
TTITLE4=Lindsay Ell - Waiting On You
TTITLE5=Tyler Farr - I Should Go To Church Sometime
TTITLE6=Chris Stapleton - Either Way
TTITLE7=Jordan Davis - Singles You Up
TTITLE8=Chris Young - Losing Sleep
TTITLE9=Lauren Alaina - Doin' Fine
TTITLE10=Billy Ray Cyrus - Achy Breaky Heart [Remix]
TTITLE11=SaraBeth - I Want It That Way
TTITLE12=Gary Allan - Mess Me Up
TTITLE13=Fiona Culley - Act Like A Lady
TTITLE14=Granger Smith - Happens Like That
TTITLE15=Alexandra Demetree - Outta My Head
TTITLE16=Mallory Johnson - Good Mistake To Make
TTITLE17=Shotgun Wedding - South Of Somewhere
TTITLE18=Chad Brownlee - Might As Well Be Me
TTITLE19=Emerson Drive - Just Got Paid
EXTD=
EXTT0=
EXTT1=
EXTT2=
EXTT3=
EXTT4=
EXTT5=
EXTT6=
EXTT7=
EXTT8=
EXTT9=
EXTT10=
EXTT11=
EXTT12=
EXTT13=
EXTT14=
EXTT15=
EXTT16=
EXTT17=
EXTT18=
EXTT19=
PLAYORDER=
